<?xml version="1.0" encoding="UTF-8"?>
<svg xmlns="http://www.w3.org/2000/svg" xmlns:xlink="http://www.w3.org/1999/xlink" width="300" height="150" viewBox="0 0 300 150">
  <defs>
    <clipPath id="b">
      <rect width="300" height="150"></rect>
    </clipPath>
  </defs>
  <g id="a" clip-path="url(#b)">
    <path d="M114.857,22.572S126.18.1,137.545.1c0,0,2.29.142,2.29,2.234l1.327-2.11s2.6-.263,2.974-.2c.374.08,1.066.3.808,1.462-.239,1.171-6.958,20.251-6.958,20.251s-4.473,11.078-.42,7.427a50.362,50.362,0,0,0,4.673-4.692l.91-.873a.654.654,0,0,1,.616.052c.267.194.584.463.361.821,0,0-1.271,1.626-1.672,2.042-.374.413-4.193,4.432-4.794,4.96a54.008,54.008,0,0,1-5.025,4.1c-1.238.681-3.416.986-3.184-1.686a15.857,15.857,0,0,1,1.077-4.668,5.177,5.177,0,0,1,.822-1.788c-.469.472-7.3,7.3-13.1,8.67a8.739,8.739,0,0,1-1.983.249C111.737,36.347,110.2,31.744,114.857,22.572ZM129.182,8.349c-5.324,5.108-8.2,12.923-8.2,12.923a27.973,27.973,0,0,0-1.413,6.1c.075,5.256,2.818,4.068,6.137,1.508,3.341-2.57,6.374-7.375,8.145-10.761,1.521-2.9,3.434-9.083,3.332-12.781a2,2,0,0,0-.116-.561,1.242,1.242,0,0,0-1.252-1.071C133.518,3.709,129.182,8.349,129.182,8.349ZM53.458,30.68c1.459-4.588,6.522-17.908,6.522-17.908a46.69,46.69,0,0,0,1.747-5.6c.815-3.266-.721-2.409-1.7-1.612a73.171,73.171,0,0,0-4.831,5.85c-6.463,8.4-13.9,23.712-13.9,23.712a2.7,2.7,0,0,1-2.519,1.111c-2.175,0-2.557-1.111-2.557-1.111s8.229-22.373,8.737-24.3,2.25-6.709-.509-6.124-7.117,8.628-7.117,8.628C34.947,17.311,26.7,35.044,26.7,35.044s-.676,1.185-3.015,1.185c-2.075,0-2.638-1.185-2.638-1.185L26.334,21s1.973-5.39,3.26-8.749,1.171-4.284,1.042-4.859c-.159-.586-.743-1.2-2.369.071A31.5,31.5,0,0,0,24.2,11.993l-1.58-.7.915-1.147s5.157-7.106,9.725-9c6.608-2.74,1.295,11.6,1.295,11.6l3.712-5.7C44.08-1.366,49.086-1.218,51.563,2.173c2.175,2.973-.288,10.788-.288,10.788S58.531,1.147,64.418.175s3.047,8.212,2.611,10.64S62.992,22.507,61.619,26.5s1.373,1,1.373,1l4-4.957.915.706a59.532,59.532,0,0,1-8.42,10.47c-1.943,1.835-3.44,2.581-4.505,2.581C52.978,36.3,52.5,33.664,53.458,30.68Zm38.461,1.741c-4.724,3.542-7.94,3.542-7.94,3.542-7.513.2-9.916-3.819-9.529-10.356.388-6.482,9.658-18.2,10.35-19.028.11,0,.032-.038.032-.038l-.032.038a7.7,7.7,0,0,1-1.69-.113c-2.075-.227-8.387-.835-10.086.991-1.6,1.727-.5,3.183,0,3.4a9.275,9.275,0,0,0,2.3.159s1.052-.038,1.359.219c.275.268.412.583.231,2.094-.2,1.842-2.713,1.4-2.713,1.4-2.185-.506-4.008-1.848-4.14-5.948a6.409,6.409,0,0,1,2.929-5.79C75.8.807,83.141.914,84.078.794S89.057.347,90.659.153c1.62-.186.533,1.185.105,2.009s-3.784,5.072-5.507,7.489-4,6.206-5.141,13.331c-1.147,7.093,4.067,8.349,4.067,8.349,3.06,1.068,6.366-1.339,6.366-1.339C86.309,18.351,91.62,9.882,91.62,9.882c6.436-11.661,10.872-8.623,10.872-8.623,4.005,2.806,2.592,9.677,2.592,9.677-2.011,9.422-9.036,17.706-9.036,17.706,1.284,1.352,3.437,3.254,8.306-.463a29.208,29.208,0,0,0,8.662-10.887,13.758,13.758,0,0,0,.883-6.274A7.506,7.506,0,0,0,112.222,6.5a15.38,15.38,0,0,0-2.886-2.453,2.516,2.516,0,0,1-.188-3.274c.84-1.338,2.643-.427,2.643-.427a10.318,10.318,0,0,1,4.215,6.195c2.032,7.908-3.647,16.578-3.647,16.578a32.4,32.4,0,0,1-11.577,12.4,6.534,6.534,0,0,1-2.956.758C94.059,36.281,91.918,32.421,91.918,32.421Zm1.349-19.542C91.318,21.609,94.4,26.15,94.4,26.15a32.785,32.785,0,0,0,3.117-4.366,29.352,29.352,0,0,0,2.993-6.605c1.343-5.869-.815-7.572-.815-7.572a2.533,2.533,0,0,0-1.868-1.065C95.161,6.542,93.267,12.879,93.267,12.879ZM.451,32.268s-1.48-4.2.923-11.352C3.531,14.4,6.182,9.107,9.78,5.141S18.006-1.665,22.652,2.3c0,0,4.051,4.487-8.307,12.74,0,0-2.934,1.689-3.846,2.143-.921.482-2.514,1.144-2.514,1.144s-5.3,17.793,3.472,12.666c0,0,4.584-3.225,6.309-6.061l1.211.807s-4.3,5.215-5.036,5.864a19.064,19.064,0,0,1-6.374,4.336,8.079,8.079,0,0,1-1.937.229A4.883,4.883,0,0,1,.451,32.268ZM12.017,8.155a66.32,66.32,0,0,0-2.735,6.323,8.654,8.654,0,0,1-.522,1.487,7.149,7.149,0,0,0,3.44-1.676A22.7,22.7,0,0,0,17.9,7.2s1.542-2.258.078-3.764a1.052,1.052,0,0,0-.767-.3C15.653,3.132,13.129,5.76,12.017,8.155Z" transform="translate(77 57)" fill="#1a1818"></path>
  </g>
</svg>
