<?xml version='1.0' encoding='utf-8'?>
<svg xmlns="http://www.w3.org/2000/svg" width="84" height="84" viewBox="0 0 84 84" fill="none" class="stock-80-2025">
<path id="Vector" d="M68.9355 0H15.0645C6.74461 0 0 6.74461 0 15.0645V68.9355C0 77.2554 6.74461 84 15.0645 84H68.9355C77.2554 84 84 77.2554 84 68.9355V15.0645C84 6.74461 77.2554 0 68.9355 0Z" fill="#000B1D" />
<path id="Vector_2" d="M44.2538 23.973L44.1959 34.0868C41.9998 32.4109 37.6075 30.5615 32.2327 30.5615C29.0541 30.5615 27.7827 31.6018 27.7827 33.0466C27.7827 34.4914 28.7653 35.0693 32.9841 36.283C44.0804 39.5195 46.9122 43.3337 46.9122 49.1709C46.9122 56.8574 40.555 61.5965 30.6145 61.5965C24.6618 61.5965 20.1539 60.1516 16.6864 58.1288L16.7442 47.6105C20.3273 50.3846 25.5866 52.4073 30.5566 52.4073C33.7354 52.4073 35.1802 51.5404 35.1802 49.8644C35.1802 48.1884 33.6777 47.3793 29.5744 46.2812C21.7144 44.0851 16.1661 41.3688 16.1661 33.7979C16.1661 26.4582 22.119 21.3723 32.2327 21.3723C36.9141 21.3723 41.5374 22.2393 44.2538 23.973Z" fill="white" />
<path id="Vector_3" d="M62.2279 30.9661H67.776V38.9993H62.2279V49.2865C62.2279 52.0606 63.3839 53.1008 65.3488 53.1008C65.9845 53.1008 66.9091 52.9852 67.776 52.6963L67.8339 60.6718C66.5624 61.1341 65.1754 61.4231 62.5748 61.4231C55.9863 61.4231 52.114 58.3023 52.114 50.9047V38.9993H47.7797V30.9661H52.114V23.3951H62.2279L62.2279 30.9661Z" fill="white" />
<defs>
<clipPath id="clip0_2136_9330">
<rect width="84" height="84" fill="white" />
</clipPath>
</defs>
</svg>